<svg width="68" height="52" viewBox="0 0 68 52" fill="none" xmlns="http://www.w3.org/2000/svg">
<g clip-path="url(#clip0)">
<path d="M9.84229 30.5682L7.96344 24.7856L6.08459 30.5682H0L4.92115 34.1462L3.0423 39.936L7.96344 36.3581L12.8846 39.936L11.0057 34.1462L15.9269 30.5682H9.84229Z" fill="white"/>
<path d="M29.1943 42.6394L27.3155 36.8496L25.4366 42.6394H19.3521L24.2732 46.2102L22.3943 52L27.3155 48.422L32.2366 52L30.3578 46.2102L35.2789 42.6394H29.1943Z" fill="white"/>
<path d="M19.6196 33.9005L24.5407 30.3225L29.4619 33.9005L27.5758 28.1106L32.497 24.5399H26.4196L24.5407 18.7501L22.6547 24.5399H16.5701L21.4984 28.1106L19.6196 33.9005Z" fill="white"/>
<path d="M47.0292 34.551L45.1503 28.7612L43.2715 34.551H37.1869L42.108 38.129L40.2292 43.9188L45.1503 40.3408L50.0715 43.9188L48.1926 38.129L53.1138 34.551H47.0292Z" fill="white"/>
<path d="M68.0001 23.4196H61.9155L60.0367 17.637L58.1578 23.4196H52.0732L56.9944 26.9975L55.1155 32.7874L60.0367 29.2094L64.9578 32.7874L63.079 26.9975L68.0001 23.4196Z" fill="white"/>
<path d="M41.6453 23.1809L46.5665 26.7589L44.6876 20.9691L49.6088 17.3911H43.5242L41.6453 11.6085L39.7665 17.3911H33.6819L38.603 20.9691L36.7242 26.7589L41.6453 23.1809Z" fill="white"/>
<path d="M51.7406 15.1504L56.669 11.5724L61.5902 15.1504L59.7041 9.36781L64.6324 5.78982H58.5479L56.669 0L54.7829 5.78982H48.7056L53.6267 9.36781L51.7406 15.1504Z" fill="white"/>
</g>
<defs>
<clipPath id="clip0">
<rect width="68" height="52" fill="white"/>
</clipPath>
</defs>
</svg>
